<svg width="61" height="61" viewBox="0 0 61 61" fill="none" xmlns="http://www.w3.org/2000/svg">
<mask id="path-1-inside-1_787_3515" fill="white">
<path d="M35.4132 58.2181L36.9509 55.6192L33.291 53.4517L31.7504 56.0505L35.4132 58.2181ZM24.0476 55.6192L25.5853 58.2181L29.2452 56.0505L27.7103 53.4517L24.0476 55.6192ZM31.7504 56.0505C31.6178 56.2627 31.4334 56.4377 31.2145 56.5591C30.9956 56.6804 30.7495 56.7441 30.4992 56.7441C30.249 56.7441 30.0028 56.6804 29.784 56.5591C29.5651 56.4377 29.3807 56.2627 29.2481 56.0505L25.5853 58.2181C27.7784 61.9262 33.2172 61.9262 35.4132 58.2181L31.7504 56.0505ZM26.2435 4.25571H34.7549V1.18155e-06H26.2435V4.25571ZM56.7428 26.2435V29.0807H60.9985V26.2435H56.7428ZM4.25571 29.0807V26.2435H0V29.0807H4.25571ZM0 29.0807C0 32.3576 -1.37399e-07 34.9195 0.141857 36.9878C0.283714 39.0731 0.575939 40.8094 1.24267 42.4152L5.17494 40.7867C4.75788 39.788 4.51389 38.5681 4.38621 36.6984C4.25571 34.8088 4.25571 32.4143 4.25571 29.0807H0ZM18.5918 48.2086C15.0283 48.1462 13.1615 47.9193 11.6975 47.3121L10.0718 51.2444C12.3557 52.192 14.9546 52.4048 18.518 52.4672L18.5918 48.2086ZM1.24267 42.4152C2.0625 44.3946 3.26418 46.193 4.7791 47.708C6.29402 49.2229 8.09249 50.4245 10.0718 51.2444L11.6975 47.3121C8.74314 46.0883 6.39873 43.7411 5.17494 40.7867L1.24267 42.4152ZM56.7428 29.0807C56.7428 32.4143 56.7428 34.8088 56.6122 36.6984C56.4846 38.5681 56.2406 39.788 55.8264 40.7867L59.7558 42.4152C60.4225 40.8094 60.7147 39.0731 60.8594 36.9878C61.0013 34.9195 60.9985 32.3576 60.9985 29.0807H56.7428ZM42.4805 52.4615C46.0439 52.4019 48.6427 52.192 50.9266 51.2444L49.2981 47.3121C47.837 47.9193 45.9701 48.1462 42.4095 48.2086L42.4805 52.4615ZM55.8264 40.7867C54.6026 43.7411 52.2553 46.0883 49.3009 47.3121L50.9266 51.2444C52.906 50.4245 54.7044 49.2229 56.2194 47.708C57.7343 46.193 58.936 44.3946 59.7558 42.4152L55.8264 40.7867ZM34.7549 4.25571C39.4391 4.25571 42.8039 4.25571 45.4282 4.50821C48.0214 4.75504 49.6698 5.22601 50.9862 6.03176L53.2077 2.40306C51.111 1.12067 48.7335 0.547569 45.8311 0.269529C42.9599 -0.00283588 39.3568 1.18155e-06 34.7549 1.18155e-06V4.25571ZM60.9985 26.2435C60.9985 21.6417 60.9985 18.0414 60.7261 15.1673C60.4509 12.2649 59.8778 9.88459 58.5954 7.79078L54.9639 10.0123C55.7724 11.3287 56.2434 12.9771 56.4902 15.573C56.7399 18.1946 56.7428 21.5594 56.7428 26.2435H60.9985ZM50.9834 6.03176C52.6067 7.02559 53.9717 8.38962 54.9667 10.0123L58.5954 7.79078C57.25 5.59477 55.4037 3.74851 53.2077 2.40306L50.9834 6.03176ZM26.2435 1.18155e-06C21.6417 1.18155e-06 18.0414 1.2683e-06 15.1673 0.269529C12.2649 0.547569 9.88459 1.12067 7.79078 2.40306L10.0123 6.03459C11.3287 5.22601 12.9771 4.75504 15.573 4.50821C18.1946 4.25854 21.5594 4.25571 26.2435 4.25571V1.18155e-06ZM4.25571 26.2435C4.25571 21.5594 4.25571 18.1946 4.50821 15.5702C4.75504 12.9771 5.22601 11.3287 6.03175 10.0123L2.40306 7.79362C1.12067 9.88743 0.547568 12.2649 0.269528 15.1673C8.45533e-08 18.0442 0 21.6417 0 26.2435H4.25571ZM7.79078 2.40306C5.59477 3.74851 3.74851 5.59761 2.40306 7.79362L6.03459 10.0123C7.02798 8.39028 8.39098 7.0263 10.0123 6.03176L7.79078 2.40306ZM27.7075 53.4517C27.1344 52.4785 26.6294 51.6189 26.1357 50.9436C25.6299 50.2016 24.9699 49.5774 24.2008 49.1137L22.0616 52.7935C22.1949 52.8729 22.3793 53.0148 22.6971 53.4517C23.0404 53.9226 23.4291 54.5752 24.0476 55.6192L27.7075 53.4517ZM18.518 52.4615C19.7663 52.4842 20.5522 52.5012 21.1537 52.5665C21.7155 52.6289 21.9339 52.7197 22.0616 52.7935L24.2008 49.1137C23.408 48.67 22.5278 48.4047 21.6218 48.3363C20.7764 48.2427 19.7607 48.2285 18.5918 48.2086L18.518 52.4615ZM36.9509 55.6192C37.5694 54.578 37.9581 53.9226 38.3014 53.4517C38.6191 53.0148 38.8035 52.8729 38.9369 52.7935L36.7977 49.1137C35.9749 49.596 35.3791 50.2344 34.8627 50.9436C34.3719 51.6189 33.8641 52.4757 33.2881 53.4517L36.9509 55.6192ZM42.4095 48.2086C41.2406 48.2285 40.2221 48.2427 39.3766 48.3363C38.4943 48.4356 37.629 48.6314 36.7977 49.1137L38.9369 52.7935C39.0645 52.7197 39.283 52.6289 39.8448 52.5665C40.4462 52.5012 41.235 52.4814 42.4833 52.4615L42.4095 48.2086Z"/>
</mask>
<path d="M35.4132 58.2181L36.9509 55.6192L33.291 53.4517L31.7504 56.0505L35.4132 58.2181ZM24.0476 55.6192L25.5853 58.2181L29.2452 56.0505L27.7103 53.4517L24.0476 55.6192ZM31.7504 56.0505C31.6178 56.2627 31.4334 56.4377 31.2145 56.5591C30.9956 56.6804 30.7495 56.7441 30.4992 56.7441C30.249 56.7441 30.0028 56.6804 29.784 56.5591C29.5651 56.4377 29.3807 56.2627 29.2481 56.0505L25.5853 58.2181C27.7784 61.9262 33.2172 61.9262 35.4132 58.2181L31.7504 56.0505ZM26.2435 4.25571H34.7549V1.18155e-06H26.2435V4.25571ZM56.7428 26.2435V29.0807H60.9985V26.2435H56.7428ZM4.25571 29.0807V26.2435H0V29.0807H4.25571ZM0 29.0807C0 32.3576 -1.37399e-07 34.9195 0.141857 36.9878C0.283714 39.0731 0.575939 40.8094 1.24267 42.4152L5.17494 40.7867C4.75788 39.788 4.51389 38.5681 4.38621 36.6984C4.25571 34.8088 4.25571 32.4143 4.25571 29.0807H0ZM18.5918 48.2086C15.0283 48.1462 13.1615 47.9193 11.6975 47.3121L10.0718 51.2444C12.3557 52.192 14.9546 52.4048 18.518 52.4672L18.5918 48.2086ZM1.24267 42.4152C2.0625 44.3946 3.26418 46.193 4.7791 47.708C6.29402 49.2229 8.09249 50.4245 10.0718 51.2444L11.6975 47.3121C8.74314 46.0883 6.39873 43.7411 5.17494 40.7867L1.24267 42.4152ZM56.7428 29.0807C56.7428 32.4143 56.7428 34.8088 56.6122 36.6984C56.4846 38.5681 56.2406 39.788 55.8264 40.7867L59.7558 42.4152C60.4225 40.8094 60.7147 39.0731 60.8594 36.9878C61.0013 34.9195 60.9985 32.3576 60.9985 29.0807H56.7428ZM42.4805 52.4615C46.0439 52.4019 48.6427 52.192 50.9266 51.2444L49.2981 47.3121C47.837 47.9193 45.9701 48.1462 42.4095 48.2086L42.4805 52.4615ZM55.8264 40.7867C54.6026 43.7411 52.2553 46.0883 49.3009 47.3121L50.9266 51.2444C52.906 50.4245 54.7044 49.2229 56.2194 47.708C57.7343 46.193 58.936 44.3946 59.7558 42.4152L55.8264 40.7867ZM34.7549 4.25571C39.4391 4.25571 42.8039 4.25571 45.4282 4.50821C48.0214 4.75504 49.6698 5.22601 50.9862 6.03176L53.2077 2.40306C51.111 1.12067 48.7335 0.547569 45.8311 0.269529C42.9599 -0.00283588 39.3568 1.18155e-06 34.7549 1.18155e-06V4.25571ZM60.9985 26.2435C60.9985 21.6417 60.9985 18.0414 60.7261 15.1673C60.4509 12.2649 59.8778 9.88459 58.5954 7.79078L54.9639 10.0123C55.7724 11.3287 56.2434 12.9771 56.4902 15.573C56.7399 18.1946 56.7428 21.5594 56.7428 26.2435H60.9985ZM50.9834 6.03176C52.6067 7.02559 53.9717 8.38962 54.9667 10.0123L58.5954 7.79078C57.25 5.59477 55.4037 3.74851 53.2077 2.40306L50.9834 6.03176ZM26.2435 1.18155e-06C21.6417 1.18155e-06 18.0414 1.2683e-06 15.1673 0.269529C12.2649 0.547569 9.88459 1.12067 7.79078 2.40306L10.0123 6.03459C11.3287 5.22601 12.9771 4.75504 15.573 4.50821C18.1946 4.25854 21.5594 4.25571 26.2435 4.25571V1.18155e-06ZM4.25571 26.2435C4.25571 21.5594 4.25571 18.1946 4.50821 15.5702C4.75504 12.9771 5.22601 11.3287 6.03175 10.0123L2.40306 7.79362C1.12067 9.88743 0.547568 12.2649 0.269528 15.1673C8.45533e-08 18.0442 0 21.6417 0 26.2435H4.25571ZM7.79078 2.40306C5.59477 3.74851 3.74851 5.59761 2.40306 7.79362L6.03459 10.0123C7.02798 8.39028 8.39098 7.0263 10.0123 6.03176L7.79078 2.40306ZM27.7075 53.4517C27.1344 52.4785 26.6294 51.6189 26.1357 50.9436C25.6299 50.2016 24.9699 49.5774 24.2008 49.1137L22.0616 52.7935C22.1949 52.8729 22.3793 53.0148 22.6971 53.4517C23.0404 53.9226 23.4291 54.5752 24.0476 55.6192L27.7075 53.4517ZM18.518 52.4615C19.7663 52.4842 20.5522 52.5012 21.1537 52.5665C21.7155 52.6289 21.9339 52.7197 22.0616 52.7935L24.2008 49.1137C23.408 48.67 22.5278 48.4047 21.6218 48.3363C20.7764 48.2427 19.7607 48.2285 18.5918 48.2086L18.518 52.4615ZM36.9509 55.6192C37.5694 54.578 37.9581 53.9226 38.3014 53.4517C38.6191 53.0148 38.8035 52.8729 38.9369 52.7935L36.7977 49.1137C35.9749 49.596 35.3791 50.2344 34.8627 50.9436C34.3719 51.6189 33.8641 52.4757 33.2881 53.4517L36.9509 55.6192ZM42.4095 48.2086C41.2406 48.2285 40.2221 48.2427 39.3766 48.3363C38.4943 48.4356 37.629 48.6314 36.7977 49.1137L38.9369 52.7935C39.0645 52.7197 39.283 52.6289 39.8448 52.5665C40.4462 52.5012 41.235 52.4814 42.4833 52.4615L42.4095 48.2086Z" fill="black"/>
<path d="M35.4132 58.2181L34.6907 59.4389L36.136 56.9975L35.4132 58.2181ZM10.0718 51.2444L8.76089 50.7024L11.3825 51.7872L10.0718 51.2444ZM59.7558 42.4152L59.213 43.7258L60.2989 41.1047L59.7558 42.4152ZM24.2008 49.1137L25.4274 49.8262L22.9744 48.4007L24.2008 49.1137ZM32.8603 58.3548L34.6903 59.4386L36.136 56.9975L34.3061 55.9137L32.8603 58.3548ZM35.843 53.3144L34.0102 52.2306L32.5661 54.6727L34.3989 55.7565L35.843 53.3144ZM25.1547 53.3149L23.3247 54.3987L24.7705 56.8398L26.6004 55.756L25.1547 53.3149ZM28.1373 58.3553L29.9701 57.2716L28.526 54.8294L26.6932 55.9132L28.1373 58.3553ZM3.75158 42.9116L5.71772 42.0973L4.63216 39.4761L2.66602 40.2903L3.75158 42.9116ZM17.1365 50.3091L17.0996 52.4369L19.9364 52.4861L19.9732 50.3582L17.1365 50.3091ZM9.57548 48.7355L8.76122 50.7016L11.3825 51.7872L12.1967 49.821L9.57548 48.7355ZM57.2469 42.9116L59.213 43.7258L60.2986 41.1046L58.3324 40.2903L57.2469 42.9116ZM43.862 50.311L43.8279 48.1831L40.9911 48.2285L41.0252 50.3563L43.862 50.311ZM48.8017 49.821L49.616 51.7872L52.2372 50.7016L51.423 48.7355L48.8017 49.821ZM50.8887 3.47789L49.7765 5.29366L52.1959 6.77553L53.3081 4.95976L50.8887 3.47789ZM57.5192 10.1106L59.335 9.00131L57.8558 6.58025L56.0401 7.68957L57.5192 10.1106ZM10.1126 3.48073L9.00047 1.66496L6.58109 3.14683L7.69325 4.9626L10.1126 3.48073ZM4.95838 7.69241L3.14262 6.58309L1.6635 9.00415L3.47926 10.1135L4.95838 7.69241ZM24.3578 51.6675L25.4274 49.8262L22.9742 48.4011L21.9046 50.2424L24.3578 51.6675ZM31.0279 57.2713L34.6907 59.4389L36.1356 56.9973L32.4729 54.8297L31.0279 57.2713ZM36.1735 4.25571V1.18155e-06H33.3364V4.25571H36.1735ZM24.825 1.18155e-06V4.25571H27.6621V1.18155e-06H24.825ZM56.7428 30.4992H60.9985V27.6621H56.7428V30.4992ZM60.9985 24.825H56.7428V27.6621H60.9985V24.825ZM4.25571 24.825H0V27.6621H4.25571V24.825ZM0 30.4992H4.25571V27.6621H0V30.4992ZM1.78545 43.7258L5.71772 42.0973L4.63216 39.4761L0.699884 41.1046L1.78545 43.7258ZM10.3866 46.7701L8.76089 50.7024L11.3828 51.7864L13.0085 47.8541L10.3866 46.7701ZM55.2832 42.0972L59.2127 43.7257L60.2989 41.1047L56.3695 39.4762L55.2832 42.0972ZM22.9744 48.4007L20.8352 52.0805L23.288 53.5064L25.4272 49.8266L22.9744 48.4007ZM40.1633 52.0805L38.0241 48.4007L35.5713 49.8266L37.7105 53.5064L40.1633 52.0805ZM35.4132 58.2181L37.8543 59.6637L37.8549 59.6628L35.4132 58.2181ZM33.2881 53.4517L30.8447 52.0098L29.4046 54.4502L31.8432 55.8933L33.2881 53.4517ZM29.2481 56.0505L31.6542 54.5472L30.1866 52.1983L27.8031 53.6089L29.2481 56.0505ZM5.17494 40.7867L7.79611 39.7009L7.79295 39.6934L5.17494 40.7867ZM18.518 52.4615L15.6813 52.4123L15.6321 55.2466L18.4664 55.2982L18.518 52.4615ZM10.0718 51.2444L11.1591 48.6239L11.1575 48.6232L10.0718 51.2444ZM59.7558 42.4152L57.1355 41.3273L57.1346 41.3295L59.7558 42.4152ZM58.5954 7.79078L61.0148 6.30897L61.0146 6.30859L58.5954 7.79078ZM2.40306 7.79362L-0.0161309 6.31143L-0.0163629 6.31181L2.40306 7.79362ZM24.2008 49.1137L25.6656 46.684L25.6264 46.6603L25.5864 46.6379L24.2008 49.1137ZM33.291 53.4517L34.7367 51.0105L32.2966 49.5654L30.8504 52.0049L33.291 53.4517ZM31.7504 56.0505L34.1565 57.5538L34.1741 57.5257L34.191 57.4972L31.7504 56.0505ZM29.2452 56.0505L30.691 58.4916L33.1291 57.0476L31.6881 54.6077L29.2452 56.0505ZM27.7103 53.4517L30.1532 52.0089L28.7092 49.5639L26.2654 51.01L27.7103 53.4517ZM0.141857 36.9878L2.97245 36.7952L2.97234 36.7936L0.141857 36.9878ZM1.24267 42.4152L3.86386 41.3295L3.86293 41.3273L1.24267 42.4152ZM4.38621 36.6984L7.21676 36.5051L7.21661 36.5029L4.38621 36.6984ZM11.6975 47.3121L12.7844 44.6914L12.7833 44.691L11.6975 47.3121ZM18.518 52.4672L18.4683 55.3039L21.3056 55.3536L21.3547 52.5163L18.518 52.4672ZM56.6122 36.6984L53.7819 36.5029L53.7817 36.5051L56.6122 36.6984ZM55.8264 40.7867L53.2057 39.6997L53.2052 39.7009L55.8264 40.7867ZM60.8594 36.9878L63.6898 37.1842L63.6899 37.1819L60.8594 36.9878ZM42.4805 52.4615L39.6437 52.5088L39.691 55.3457L42.5279 55.2983L42.4805 52.4615ZM49.2981 47.3121L51.9193 46.2265L50.8325 43.6022L48.2094 44.6922L49.2981 47.3121ZM49.3009 47.3121L48.2152 44.691L45.5958 45.776L46.679 48.3961L49.3009 47.3121ZM45.4282 4.50821L45.1565 7.33231L45.1594 7.33258L45.4282 4.50821ZM50.9862 6.03176L49.5051 8.4516L51.9247 9.93258L53.4059 7.51309L50.9862 6.03176ZM53.2077 2.40306L54.6899 -0.0161303L54.688 -0.0172547L53.2077 2.40306ZM45.8311 0.269529L46.1017 -2.55468L46.0991 -2.55493L45.8311 0.269529ZM60.7261 15.1673L63.5506 14.8997L63.5506 14.8995L60.7261 15.1673ZM54.9639 10.0123L53.4834 7.59204L51.0587 9.07523L52.5463 11.4972L54.9639 10.0123ZM56.4902 15.573L53.6658 15.8416L53.6659 15.842L56.4902 15.573ZM50.9834 6.03176L48.5645 4.54904L47.081 6.96925L49.502 8.45144L50.9834 6.03176ZM54.9667 10.0123L52.5481 11.4954L54.0301 13.9122L56.448 12.432L54.9667 10.0123ZM15.1673 0.269529L14.9024 -2.55522L14.8968 -2.55468L15.1673 0.269529ZM7.79078 2.40306L6.30897 -0.0163617L6.30859 -0.0161296L7.79078 2.40306ZM10.0123 6.03459L7.59203 7.51509L9.07523 9.93972L11.4972 8.45212L10.0123 6.03459ZM15.573 4.50821L15.8416 7.33261L15.842 7.33257L15.573 4.50821ZM4.50821 15.5702L7.33231 15.8419L7.33258 15.8391L4.50821 15.5702ZM6.03175 10.0123L8.4516 11.4934L9.93342 9.07237L7.51172 7.59171L6.03175 10.0123ZM0.269528 15.1673L-2.55469 14.8968L-2.55524 14.9027L0.269528 15.1673ZM6.03459 10.0123L4.55547 12.4333L6.97387 13.9108L8.45403 11.494L6.03459 10.0123ZM10.0123 6.03176L11.4958 8.45013L13.912 6.96795L12.432 4.55042L10.0123 6.03176ZM27.7075 53.4517L29.1532 55.8928L31.5884 54.4506L30.1522 52.0119L27.7075 53.4517ZM26.1357 50.9436L23.7914 52.5416L23.8177 52.5803L23.8454 52.6181L26.1357 50.9436ZM22.0616 52.7935L23.5136 50.3561L23.4974 50.3464L23.4809 50.3369L22.0616 52.7935ZM22.6971 53.4517L20.4026 55.1204L20.4044 55.1229L22.6971 53.4517ZM21.1537 52.5665L21.467 49.7467L21.4597 49.7459L21.1537 52.5665ZM21.6218 48.3363L21.3096 51.1562L21.3589 51.1617L21.4084 51.1654L21.6218 48.3363ZM38.3014 53.4517L40.5941 55.1229L40.5959 55.1204L38.3014 53.4517ZM38.9369 52.7935L37.5175 50.3369L37.5011 50.3464L37.4848 50.3561L38.9369 52.7935ZM36.7977 49.1137L35.3738 46.6597L35.3629 46.6661L36.7977 49.1137ZM34.8627 50.9436L32.569 49.2738L32.5678 49.2755L34.8627 50.9436ZM39.3766 48.3363L39.0644 45.5164L39.0593 45.517L39.3766 48.3363ZM39.8448 52.5665L39.5388 49.7459L39.5315 49.7467L39.8448 52.5665ZM42.4833 52.4615L42.5284 55.2983L45.3693 55.2531L45.32 52.4123L42.4833 52.4615ZM37.8549 59.6628L39.3926 57.064L34.5092 54.1745L32.9714 56.7733L37.8549 59.6628ZM38.3966 53.1781L34.7367 51.0105L31.8452 55.8928L35.5051 58.0604L38.3966 53.1781ZM30.8504 52.0049L29.3099 54.6037L34.191 57.4972L35.7315 54.8984L30.8504 52.0049ZM21.6059 57.064L23.1436 59.6628L28.027 56.7733L26.4893 54.1745L21.6059 57.064ZM27.0311 60.6592L30.691 58.4916L27.7995 53.6094L24.1395 55.7769L27.0311 60.6592ZM31.6881 54.6077L30.1532 52.0089L25.2674 54.8945L26.8023 57.4933L31.6881 54.6077ZM26.2654 51.01L22.6027 53.1776L25.4925 58.0609L29.1553 55.8933L26.2654 51.01ZM29.3443 54.5472C29.4667 54.3512 29.6369 54.1897 29.839 54.0777L32.59 59.0405C33.2298 58.6858 33.7689 58.1742 34.1565 57.5538L29.3443 54.5472ZM29.839 54.0777C30.041 53.9657 30.2682 53.9069 30.4992 53.9069V59.5812C31.2308 59.5812 31.9503 59.3951 32.59 59.0405L29.839 54.0777ZM30.4992 53.9069C30.7302 53.9069 30.9574 53.9657 31.1595 54.0777L28.4084 59.0405C29.0482 59.3951 29.7677 59.5812 30.4992 59.5812V53.9069ZM31.1595 54.0777C31.3615 54.1897 31.5317 54.3512 31.6542 54.5472L26.8419 57.5538C27.2296 58.1742 27.7686 58.6858 28.4084 59.0405L31.1595 54.0777ZM27.8031 53.6089L24.1404 55.7764L27.0302 60.6597L30.693 58.4921L27.8031 53.6089ZM23.1433 59.6623C26.4355 65.2288 34.5604 65.226 37.8543 59.6637L32.972 56.7724C31.874 58.6264 29.1213 58.6236 28.0273 56.7738L23.1433 59.6623ZM26.2435 7.09285H34.7549V1.41857H26.2435V7.09285ZM34.7549 -2.83714H26.2435V2.83714H34.7549V-2.83714ZM53.9056 26.2435V29.0807H59.5799V26.2435H53.9056ZM63.8356 29.0807V26.2435H58.1613V29.0807H63.8356ZM7.09284 29.0807V26.2435H1.41857V29.0807H7.09284ZM-2.83714 26.2435V29.0807H2.83714V26.2435H-2.83714ZM-2.83714 29.0807C-2.83714 32.3204 -2.83866 34.9945 -2.68863 37.1819L2.97234 36.7936C2.83866 34.8445 2.83714 32.3947 2.83714 29.0807H-2.83714ZM-2.68874 37.1803C-2.53718 39.4082 -2.21281 41.4915 -1.3776 43.5031L3.86293 41.3273C3.36469 40.1273 3.10461 38.7379 2.97245 36.7952L-2.68874 37.1803ZM7.79295 39.6934C7.54713 39.1047 7.33492 38.2354 7.21676 36.5051L1.55567 36.8917C1.69286 38.9007 1.96863 40.4713 2.55692 41.88L7.79295 39.6934ZM7.21661 36.5029C7.09445 34.7342 7.09284 32.4555 7.09284 29.0807H1.41857C1.41857 32.3731 1.41696 34.8835 1.55582 36.8939L7.21661 36.5029ZM18.6415 45.3719C15.0738 45.3095 13.6995 45.0709 12.7844 44.6914L10.6106 49.9328C12.6235 50.7676 14.9828 50.983 18.5421 51.0453L18.6415 45.3719ZM8.98456 53.8649C11.814 55.0389 14.9001 55.2414 18.4683 55.3039L18.5677 49.6305C15.009 49.5682 12.8974 49.3451 11.1591 48.6239L8.98456 53.8649ZM21.3547 52.5163L21.4285 48.2578L15.7551 48.1595L15.6813 52.418L21.3547 52.5163ZM-1.37852 43.5009C-0.416111 45.8245 0.994561 47.9357 2.77294 49.7141L6.78526 45.7018C5.53381 44.4503 4.54111 42.9646 3.86386 41.3295L-1.37852 43.5009ZM2.77294 49.7141C4.55132 51.4925 6.66258 52.9032 8.98616 53.8656L11.1575 48.6232C9.52241 47.9459 8.03671 46.9532 6.78526 45.7018L2.77294 49.7141ZM12.7833 44.691C10.5253 43.7556 8.73244 41.9614 7.7961 39.7009L2.55378 41.8725C4.06503 45.5208 6.96102 48.421 10.6118 49.9333L12.7833 44.691ZM53.9056 29.0807C53.9056 32.4555 53.904 34.7342 53.7819 36.5029L59.4426 36.8939C59.5815 34.8835 59.5799 32.3731 59.5799 29.0807H53.9056ZM53.7817 36.5051C53.6636 38.2345 53.4514 39.1073 53.2057 39.6997L58.447 41.8737C59.0298 40.4687 59.3055 38.9016 59.4428 36.8917L53.7817 36.5051ZM62.3761 43.5031C63.2111 41.492 63.5354 39.4093 63.6898 37.1842L58.0291 36.7914C57.8941 38.7368 57.634 40.1268 57.1355 41.3273L62.3761 43.5031ZM63.6899 37.1819C63.84 34.9937 63.8356 32.3171 63.8356 29.0807H58.1613C58.1613 32.3981 58.1626 34.8453 58.029 36.7936L63.6899 37.1819ZM42.5279 55.2983C46.095 55.2386 49.1828 55.0395 52.0139 53.8649L49.8393 48.6239C48.1026 49.3444 45.9928 49.5653 42.433 49.6248L42.5279 55.2983ZM53.5479 50.1588L51.9193 46.2265L46.6769 48.3977L48.3054 52.3299L53.5479 50.1588ZM48.2094 44.6922C47.2983 45.0708 45.9253 45.3094 42.3598 45.3719L42.4593 51.0453C46.015 50.983 48.3756 50.7678 50.3868 49.9321L48.2094 44.6922ZM39.5728 48.256L39.6437 52.5088L45.3172 52.4142L45.2463 48.1613L39.5728 48.256ZM53.2052 39.7009C52.2694 41.9602 50.4744 43.7551 48.2152 44.691L50.3867 49.9333C54.0362 48.4215 56.9358 45.522 58.4475 41.8725L53.2052 39.7009ZM46.679 48.3961L48.3047 52.3283L53.5485 50.1604L51.9229 46.2282L46.679 48.3961ZM52.0123 53.8656C54.3359 52.9032 56.4471 51.4925 58.2255 49.7141L54.2132 45.7018C52.9618 46.9532 51.4761 47.9459 49.8409 48.6232L52.0123 53.8656ZM58.2255 49.7141C60.0039 47.9357 61.4146 45.8245 62.377 43.5009L57.1346 41.3295C56.4573 42.9646 55.4647 44.4503 54.2132 45.7018L58.2255 49.7141ZM34.7549 7.09285C39.4973 7.09285 42.7002 7.09597 45.1565 7.33231L45.7 1.68412C42.9076 1.41545 39.3808 1.41857 34.7549 1.41857V7.09285ZM45.1594 7.33258C47.5467 7.55982 48.7096 7.96473 49.5051 8.4516L52.4673 3.61191C50.6299 2.48729 48.496 1.95026 45.6971 1.68384L45.1594 7.33258ZM53.4059 7.51309L55.6274 3.88439L50.788 0.92172L48.5665 4.55042L53.4059 7.51309ZM54.688 -0.0172547C52.0724 -1.61705 49.2114 -2.25678 46.1017 -2.55468L45.5606 3.09374C48.2556 3.35191 50.1496 3.85839 51.7273 4.82337L54.688 -0.0172547ZM46.0991 -2.55493C43.0628 -2.84295 39.302 -2.83714 34.7549 -2.83714V2.83714C39.4115 2.83714 42.8571 2.83728 45.5632 3.09399L46.0991 -2.55493ZM63.8356 26.2435C63.8356 21.6939 63.8385 17.938 63.5506 14.8997L57.9016 15.435C58.1584 18.1447 58.1613 21.5895 58.1613 26.2435H63.8356ZM63.5506 14.8995C63.2556 11.789 62.616 8.92333 61.0148 6.30897L56.176 9.27259C57.1396 10.8459 57.6462 12.7409 57.9016 15.4352L63.5506 14.8995ZM57.1149 5.37056L53.4834 7.59204L56.4444 12.4325L60.0759 10.211L57.1149 5.37056ZM52.5463 11.4972C53.0336 12.2905 53.4385 13.4509 53.6658 15.8416L59.3146 15.3045C59.0483 12.5033 58.5113 10.3669 57.3814 8.52736L52.5463 11.4972ZM53.6659 15.842C53.8998 18.2978 53.9056 21.5042 53.9056 26.2435H59.5799C59.5799 21.6147 59.5801 18.0914 59.3146 15.3041L53.6659 15.842ZM49.502 8.45144C50.7434 9.21144 51.7872 10.2545 52.5481 11.4954L57.3853 8.52916C56.1562 6.52473 54.47 4.83975 52.4647 3.61207L49.502 8.45144ZM56.448 12.432L60.0767 10.2105L57.1141 5.37107L53.4854 7.59255L56.448 12.432ZM61.0146 6.30859C59.4351 3.73067 57.2678 1.56332 54.6899 -0.0161296L51.7255 4.82224C53.5396 5.9337 55.0648 7.45888 56.1762 9.27297L61.0146 6.30859ZM50.7888 0.920342L48.5645 4.54904L53.4022 7.51447L55.6265 3.88577L50.7888 0.920342ZM26.2435 -2.83714C21.6934 -2.83714 17.9391 -2.83999 14.9024 -2.55521L15.4322 3.09427C18.1436 2.83999 21.59 2.83714 26.2435 2.83714V-2.83714ZM14.8968 -2.55468C11.7882 -2.25689 8.92302 -1.61738 6.30897 -0.0163617L9.27259 4.82247C10.8462 3.85872 12.7417 3.35203 15.4379 3.09374L14.8968 -2.55468ZM5.37056 3.88355L7.59203 7.51509L12.4325 4.5541L10.211 0.922561L5.37056 3.88355ZM11.4972 8.45212C12.2904 7.96486 13.4509 7.55993 15.8416 7.33261L15.3045 1.68381C12.5033 1.95016 10.3669 2.48716 8.52736 3.61707L11.4972 8.45212ZM15.842 7.33257C18.2978 7.09869 21.5042 7.09285 26.2435 7.09285V1.41857C21.6147 1.41857 18.0914 1.4184 15.3041 1.68386L15.842 7.33257ZM7.09284 26.2435C7.09284 21.5012 7.09597 18.2983 7.33231 15.8419L1.68412 15.2985C1.41545 18.0909 1.41857 21.6176 1.41857 26.2435H7.09284ZM7.33258 15.8391C7.55982 13.4517 7.96473 12.2888 8.4516 11.4934L3.61191 8.53115C2.48728 10.3686 1.95026 12.5024 1.68384 15.3014L7.33258 15.8391ZM7.51172 7.59171L3.88302 5.37307L0.923094 10.2142L4.55179 12.4328L7.51172 7.59171ZM-0.0163629 6.31181C-1.61715 8.92548 -2.25682 11.7875 -2.55468 14.8968L3.09374 15.4379C3.35196 12.7424 3.85849 10.8494 4.82247 9.27543L-0.0163629 6.31181ZM-2.55524 14.9027C-2.83999 17.942 -2.83714 21.6932 -2.83714 26.2435H2.83714C2.83714 21.5902 2.83999 18.1464 3.0943 15.432L-2.55524 14.9027ZM6.30859 -0.0161296C3.72937 1.56411 1.56252 3.73481 -0.0161308 6.31143L4.82224 9.27581C5.9345 7.46041 7.46018 5.93291 9.27297 4.82224L6.30859 -0.0161296ZM0.923936 10.2147L4.55547 12.4333L7.51371 7.59119L3.88217 5.37255L0.923936 10.2147ZM8.45403 11.494C9.21368 10.2537 10.256 9.21067 11.4958 8.45013L8.52875 3.61338C6.52599 4.84193 4.84228 6.52685 3.61516 8.53047L8.45403 11.494ZM12.432 4.55042L10.2105 0.921719L5.37107 3.88439L7.59255 7.51309L12.432 4.55042ZM30.1522 52.0119C29.6041 51.0813 29.021 50.083 28.426 49.2692L23.8454 52.6181C24.2377 53.1548 24.6647 53.8758 25.2628 54.8914L30.1522 52.0119ZM28.4801 49.3457C27.7443 48.2663 26.7843 47.3584 25.6656 46.684L22.736 51.5434C23.1555 51.7964 23.5155 52.1368 23.7914 52.5416L28.4801 49.3457ZM20.6095 55.2308C20.5655 55.2046 20.5098 55.1684 20.4511 55.1237C20.3947 55.0806 20.3537 55.0435 20.3288 55.0191C20.2848 54.9762 20.307 54.989 20.4026 55.1204L24.9916 51.783C24.5302 51.1486 24.079 50.6929 23.5136 50.3561L20.6095 55.2308ZM20.4044 55.1229C20.6491 55.4586 20.9586 55.9714 21.6066 57.0653L26.4886 54.1732C25.8995 53.1789 25.4317 52.3867 24.9898 51.7805L20.4044 55.1229ZM25.4933 58.0604L29.1532 55.8928L26.2617 51.0105L22.6018 53.1781L25.4933 58.0604ZM18.4664 55.2982C19.7656 55.3218 20.4026 55.3388 20.8477 55.3871L21.4597 49.7459C20.7019 49.6637 19.7671 49.6466 18.5696 49.6248L18.4664 55.2982ZM20.8404 55.3863C21.0198 55.4062 21.0528 55.4211 21.0001 55.4063C20.9694 55.3976 20.9151 55.3804 20.8448 55.3508C20.7708 55.3197 20.7018 55.2845 20.6422 55.25L23.4809 50.3369C22.8864 49.9933 22.2397 49.8326 21.467 49.7467L20.8404 55.3863ZM25.5864 46.6379C24.4332 45.9925 23.153 45.6066 21.8352 45.5072L21.4084 51.1654C21.9026 51.2027 22.3827 51.3474 22.8151 51.5894L25.5864 46.6379ZM21.9341 45.5164C20.9263 45.4048 19.7557 45.3909 18.64 45.3719L18.5436 51.0454C19.7656 51.0661 20.6265 51.0806 21.3096 51.1562L21.9341 45.5164ZM15.7551 48.1594L15.6813 52.4123L21.3547 52.5107L21.4285 48.2578L15.7551 48.1594ZM39.3901 57.0682C40.0423 55.9703 40.3492 55.4588 40.5941 55.1229L36.0087 51.7805C35.5669 52.3865 35.0965 53.1858 34.5116 54.1703L39.3901 57.0682ZM40.5959 55.1204C40.6914 54.989 40.7137 54.9762 40.6697 55.0191C40.6447 55.0435 40.6038 55.0806 40.5473 55.1237C40.4887 55.1684 40.433 55.2046 40.3889 55.2308L37.4848 50.3561C36.9195 50.6929 36.4682 51.1486 36.0069 51.783L40.5959 55.1204ZM35.3629 46.6661C34.0909 47.4118 33.2234 48.3749 32.569 49.2738L37.1564 52.6135C37.5348 52.0938 37.859 51.7802 38.2325 51.5613L35.3629 46.6661ZM32.5678 49.2755C31.9812 50.0826 31.401 51.0672 30.8447 52.0098L35.7316 54.8936C36.3272 53.8842 36.7627 53.1552 37.1577 52.6118L32.5678 49.2755ZM31.8432 55.8933L35.506 58.0609L38.3958 53.1776L34.7331 51.01L31.8432 55.8933ZM42.3613 45.3719C41.2459 45.3909 40.0723 45.4048 39.0644 45.5164L39.6889 51.1562C40.3719 51.0806 41.2354 51.0661 42.4577 51.0454L42.3613 45.3719ZM39.0593 45.517C37.9714 45.6394 36.6752 45.9047 35.3739 46.6597L38.2215 51.5677C38.5828 51.3581 39.0172 51.2318 39.6939 51.1557L39.0593 45.517ZM40.3562 55.25C40.2966 55.2845 40.2277 55.3197 40.1537 55.3508C40.0833 55.3804 40.0291 55.3976 39.9984 55.4063C39.9457 55.4211 39.9786 55.4062 40.1581 55.3863L39.5315 49.7467C38.7588 49.8326 38.1121 49.9933 37.5175 50.3369L40.3562 55.25ZM40.1508 55.3871C40.596 55.3388 41.2436 55.3187 42.5284 55.2983L42.4382 49.6247C41.2264 49.644 40.2965 49.6637 39.5388 49.7459L40.1508 55.3871ZM45.32 52.4123L45.2462 48.1594L39.5728 48.2579L39.6466 52.5107L45.32 52.4123Z" fill="#979797" mask="url(#path-1-inside-1_787_3515)"/>
<path opacity="0.5" d="M19.1508 21.9878H41.8479M19.1508 31.9178H34.755" stroke="#979797" stroke-width="4.25571" stroke-linecap="round"/>
</svg>
