<svg width="23" height="24" viewBox="0 0 23 24" fill="none" xmlns="http://www.w3.org/2000/svg">
<path d="M7.3418 10.1626C7.3418 9.91924 7.43848 9.68584 7.61057 9.51374C7.78266 9.34165 8.01607 9.24497 8.25945 9.24497H13.7653C14.0087 9.24497 14.2421 9.34165 14.4142 9.51374C14.5863 9.68584 14.683 9.91924 14.683 10.1626C14.683 10.406 14.5863 10.6394 14.4142 10.8115C14.2421 10.9836 14.0087 11.0803 13.7653 11.0803H8.25945C8.01607 11.0803 7.78266 10.9836 7.61057 10.8115C7.43848 10.6394 7.3418 10.406 7.3418 10.1626ZM8.25945 12.9156C8.01607 12.9156 7.78266 13.0122 7.61057 13.1843C7.43848 13.3564 7.3418 13.5898 7.3418 13.8332C7.3418 14.0766 7.43848 14.31 7.61057 14.4821C7.78266 14.6542 8.01607 14.7508 8.25945 14.7508H11.93C12.1734 14.7508 12.4068 14.6542 12.5789 14.4821C12.751 14.31 12.8477 14.0766 12.8477 13.8332C12.8477 13.5898 12.751 13.3564 12.5789 13.1843C12.4068 13.0122 12.1734 12.9156 11.93 12.9156H8.25945ZM0.000633664 11.9979C0.00110195 9.57357 0.801601 7.21715 2.27795 5.29419C3.7543 3.37123 5.82398 1.98921 8.16592 1.36254C10.5079 0.735867 12.9911 0.899561 15.2306 1.82823C17.47 2.7569 19.3403 4.39863 20.5515 6.49875C21.7626 8.59887 22.2469 11.04 21.9291 13.4434C21.6114 15.8468 20.5093 18.0782 18.794 19.7914C17.0787 21.5046 14.8459 22.6038 12.4421 22.9186C10.0383 23.2333 7.59777 22.746 5.49917 21.5322L1.20826 22.9638C1.04973 23.0167 0.879754 23.0253 0.716681 22.9887C0.553607 22.9521 0.403626 22.8717 0.282924 22.7561C0.162223 22.6405 0.0753841 22.4941 0.0317806 22.3328C-0.0118229 22.1714 -0.0105354 22.0012 0.0355043 21.8406L1.34223 17.2689C0.461329 15.6517 5.95e-05 13.8394 0.000633664 11.9979ZM11.0124 2.82145C9.39215 2.82135 7.80078 3.25023 6.40003 4.0645C4.99928 4.87878 3.83909 6.04941 3.0374 7.4574C2.23571 8.86539 1.8211 10.4605 1.83572 12.0807C1.85034 13.7009 2.29366 15.2883 3.12063 16.6816C3.18426 16.7892 3.22521 16.9087 3.24099 17.0327C3.25677 17.1568 3.24704 17.2827 3.21239 17.4028L2.27823 20.6697L5.32114 19.6566C5.45038 19.6135 5.58759 19.5996 5.72282 19.6162C5.85805 19.6327 5.98792 19.6791 6.10298 19.752C7.30559 20.5131 8.66874 20.984 10.0847 21.1276C11.5006 21.2711 12.9306 21.0833 14.2615 20.5791C15.5924 20.0749 16.7877 19.268 17.7531 18.2222C18.7184 17.1764 19.4273 15.9205 19.8236 14.5536C20.22 13.1867 20.293 11.7463 20.0368 10.3463C19.7807 8.94636 19.2024 7.62516 18.3477 6.48716C17.4931 5.34916 16.3854 4.42556 15.1123 3.78935C13.8392 3.15315 12.4356 2.82178 11.0124 2.82145Z" fill="#868686"/>
</svg>
