<svg width="164" height="165" viewBox="0 0 164 165" fill="none" xmlns="http://www.w3.org/2000/svg">
<path fill-rule="evenodd" clip-rule="evenodd" d="M144.9 122.934C144.711 123.266 144.452 123.38 144.073 123.362C143.449 123.33 142.803 123.164 142.187 123.061C141.061 122.875 139.921 122.599 138.779 122.544C137.71 122.491 136.606 122.558 135.559 122.788C136.268 121.465 137.005 120.195 137.307 118.707C137.53 117.615 137.976 116.002 137.08 115.069C136.873 114.853 136.463 114.791 136.19 114.694C135.835 114.569 135.479 114.446 135.125 114.32C134.423 114.071 133.736 113.788 133.045 113.509C131.684 112.96 130.342 112.381 129.009 111.767C128.789 111.666 128.367 111.569 128.272 111.324C128.201 111.144 128.324 110.928 128.381 110.765C128.578 110.203 128.722 109.628 128.818 109.04C129.028 107.753 129.044 106.432 129.01 105.132C128.992 104.475 128.96 103.818 128.941 103.161C128.932 102.844 128.829 102.384 129.203 102.268C129.437 102.196 129.778 102.298 130.022 102.308C130.312 102.32 130.602 102.309 130.892 102.3C131.577 102.278 132.262 102.253 132.947 102.229C135.551 102.136 138.16 102.101 140.762 101.991C141.126 101.975 141.489 101.954 141.853 101.938C142.011 101.932 142.296 101.88 142.431 101.993C142.588 102.125 142.495 102.314 142.589 102.47C142.672 102.606 142.926 102.689 143.047 102.816C143.354 103.138 143.477 103.579 143.679 103.964C143.939 104.461 144.256 104.923 144.509 105.425C145.53 107.451 146.069 109.687 146.427 111.917C146.523 112.518 146.526 113.11 146.518 113.717C146.51 114.291 146.547 114.865 146.471 115.436C146.293 116.769 145.914 118.083 145.695 119.413C145.51 120.527 145.471 121.931 144.9 122.934ZM136.293 117.275C136.041 118.123 135.745 118.965 135.314 119.742C134.871 120.543 134.283 121.261 133.734 121.99C133.215 122.678 132.745 123.406 132.185 124.062C131.632 124.708 131.006 125.261 130.511 125.956C129.496 127.379 128.148 128.493 127.033 129.828C125.893 131.193 124.697 132.464 123.417 133.699C122.808 134.286 122.206 134.957 121.511 135.443C121.166 135.684 120.786 135.914 120.412 136.108C120.086 136.276 120.019 136.055 119.695 136.02C119.224 135.968 118.821 136.482 118.444 136.696C117.728 137.101 117.002 137.495 116.25 137.829C115.479 138.171 114.67 138.408 113.889 138.725C113.144 139.028 112.414 139.285 111.621 139.433C110.055 139.724 108.239 140.113 106.688 139.578C105.974 139.332 105.725 138.747 105.607 138.03C105.482 137.27 105.824 136.504 106.088 135.806C106.404 134.969 106.833 134.274 107.503 133.682C108.164 133.098 107.851 132.523 107.578 131.795C106.968 130.168 105.94 128.739 105.054 127.256C104.597 126.49 104.147 125.719 103.698 124.949C103.449 124.522 103.202 124.096 102.954 123.67C102.772 123.358 102.577 123.126 102.585 122.764C103.378 122.596 104.184 122.491 104.95 122.216C106.514 121.652 108.034 120.85 109.552 120.171C110.281 119.844 110.923 119.363 111.569 118.899C112.192 118.451 112.871 118.054 113.445 117.542C114.68 116.441 116.029 115.387 117.119 114.137C117.663 113.514 118.05 112.83 118.45 112.111C118.691 111.679 118.946 111.255 119.199 110.829C119.361 110.554 119.533 110.05 119.795 109.86C120.278 109.512 121.163 110.564 121.528 110.81C122.215 111.274 122.971 111.621 123.719 111.973C125.306 112.718 126.916 113.43 128.475 114.235C129.291 114.656 130.104 115.096 130.957 115.442C131.783 115.777 132.652 115.984 133.507 116.229C133.69 116.281 133.904 116.379 134.076 116.247C134.174 116.172 134.162 116.039 134.301 115.982C134.482 115.908 134.655 116.027 134.818 116.095C135.149 116.231 135.485 116.353 135.814 116.496C135.956 116.557 136.256 116.619 136.359 116.733C136.468 116.854 136.349 117.087 136.293 117.275ZM105.66 133.045C105.026 133.73 104.466 134.785 104.193 135.67C104.047 136.145 103.97 136.639 103.93 137.134C103.896 137.566 103.991 138.102 103.798 138.49C102.926 137.727 102.082 136.933 101.176 136.209C100.394 135.584 99.9117 134.754 99.3567 133.937C98.7606 133.06 98.261 132.131 97.7059 131.229C97.1102 130.26 96.4678 129.321 95.8535 128.365C94.76 126.662 93.9479 124.871 93.19 122.998C92.5235 121.351 91.5058 119.202 92.108 117.416C92.388 116.587 92.7297 115.652 93.3614 115.022C93.8862 114.499 94.7097 113.982 95.41 113.735C96.0833 113.497 96.3326 114.665 96.5409 115.11C96.9896 116.07 97.4553 117.021 97.9162 117.974C98.7932 119.788 99.5825 121.654 100.595 123.398C101.615 125.155 102.676 126.892 103.842 128.556C104.426 129.389 105.099 130.204 105.589 131.097C105.769 131.425 106.18 131.849 106.257 132.214C106.338 132.609 105.886 132.8 105.66 133.045ZM146.195 123.474C145.989 123.383 145.991 123.415 146.034 123.2C146.102 122.867 146.324 122.515 146.453 122.199C147.066 120.696 147.468 119.05 147.788 117.461C148.418 114.339 148.67 111.161 147.855 108.053C147.478 106.618 146.985 105.224 146.231 103.941C145.883 103.35 145.557 102.727 145.141 102.181C144.932 101.906 144.574 101.693 144.39 101.421C144.291 101.273 144.298 101.035 144.228 100.864C143.95 100.18 143.493 99.8908 142.771 99.7434C142.022 99.5907 141.188 99.5946 140.426 99.5831C138.803 99.5582 137.156 99.8428 135.539 99.974C133.915 100.106 132.296 100.279 130.677 100.466C129.973 100.547 129.156 100.533 128.483 100.77C128.077 100.913 127.89 101.184 127.808 101.596C127.518 103.054 127.63 104.62 127.632 106.097C127.634 107.682 127.548 109.272 127.211 110.825C125.755 110.279 124.311 109.731 122.885 109.109C122.172 108.798 121.45 108.503 120.741 108.184C120.375 108.019 120.238 107.824 119.989 107.535C119.771 107.282 119.588 107.388 119.396 107.619C118.392 108.819 117.716 110.25 116.666 111.425C116.195 111.953 115.663 112.419 115.182 112.937C114.658 113.501 114.071 114.034 113.478 114.523C113.203 114.75 112.89 114.908 112.599 115.111C112.33 115.299 112.106 115.541 111.849 115.746C111.313 116.173 110.716 116.513 110.116 116.841C109.514 117.17 108.924 117.511 108.337 117.865C107.76 118.214 107.124 118.449 106.53 118.764C105.971 119.06 105.457 119.411 104.889 119.695C104.342 119.97 103.977 120.466 103.409 120.691C103.103 120.812 102.781 120.887 102.476 121.01C102.223 121.111 101.926 121.331 101.652 121.191C101.347 121.036 101.215 120.526 101.079 120.243C100.903 119.878 100.725 119.514 100.546 119.152C99.8399 117.727 99.101 116.316 98.3843 114.896C98.034 114.201 97.6179 113.543 97.2841 112.84C97.0409 112.327 96.5326 111.864 95.9436 111.993C95.3492 112.122 94.6616 112.189 94.1236 112.487C93.5404 112.81 93.0082 113.297 92.4886 113.712C91.9477 114.145 91.6074 114.743 91.3174 115.361C91.0089 116.019 90.6975 116.67 90.5441 117.385C90.2545 118.739 90.0662 120.29 90.5043 121.631C90.7131 122.27 91.0959 122.816 91.4087 123.405C91.7474 124.043 91.918 124.742 92.152 125.422C92.6217 126.786 93.3087 128.087 94.0333 129.332C94.3791 129.926 94.809 130.467 95.1566 131.063C95.5276 131.699 95.9193 132.29 96.3805 132.864C96.8521 133.451 97.1839 134.133 97.5787 134.77C97.9854 135.427 98.4148 136.054 98.8977 136.656C99.8241 137.811 100.854 138.689 102.088 139.496C103.448 140.384 104.72 141.398 106.066 142.305C106.71 142.739 107.506 142.635 108.25 142.605C109.01 142.576 109.768 142.499 110.51 142.328C112.013 141.98 113.5 141.5 114.994 141.107C116.548 140.698 117.919 140.109 119.269 139.24C120.557 138.411 121.898 137.606 123.12 136.683C125.601 134.809 127.508 132.289 129.607 130.022C130.722 128.817 131.84 127.637 132.854 126.342C133.353 125.705 133.825 125.047 134.329 124.414C134.543 124.146 134.68 124.058 135.027 124.104C135.429 124.157 135.829 124.245 136.228 124.313C137.806 124.579 139.373 124.747 140.961 124.93C142.434 125.1 143.919 125.265 145.382 124.921C145.69 124.848 146.058 124.765 146.284 124.527C146.387 124.418 146.738 123.817 146.678 123.687C146.642 123.61 146.283 123.512 146.195 123.474Z" fill="#979797"/>
<path fill-rule="evenodd" clip-rule="evenodd" d="M124.186 21.0575C124.749 20.9444 125.315 20.8539 125.881 20.759C127.079 20.5573 128.271 20.3165 129.474 20.1431C130.019 20.0648 130.561 20.0722 131.108 20.0328C131.689 19.9912 132.266 19.88 132.84 19.7848C134.046 19.5841 135.255 19.4611 136.474 19.3683C136.848 19.3399 137.221 19.3137 137.595 19.2882C137.881 19.2687 138.25 19.1778 138.528 19.2254C138.969 19.3007 139.162 19.8299 139.376 20.1771C140.529 22.0501 141.022 24.4691 141.114 26.6466C141.164 27.8349 141.003 28.9994 140.87 30.1771C140.734 31.3841 140.617 32.5703 140.282 33.74C139.941 34.929 139.719 36.1347 139.317 37.3087C139.167 37.7467 139.013 38.5679 138.655 38.883C138.292 39.2019 137.64 39.1289 137.198 39.1565C134.782 39.3062 132.351 39.5174 129.932 39.5629C127.415 39.6099 124.899 39.6704 122.382 39.7402C122.668 39.1141 122.969 38.4931 123.236 37.8587C123.486 37.2612 123.622 36.6067 123.8 35.9842C124.189 34.6166 124.543 33.2467 124.663 31.8256C124.881 29.2447 124.781 26.6112 124.051 24.1134C123.879 23.5281 123.635 22.9684 123.39 22.4109C123.303 22.2115 122.965 21.7008 123.053 21.4593C123.169 21.1428 123.917 21.1117 124.186 21.0575ZM150.458 28.4918C150.955 28.6629 151.247 28.8745 151.123 29.4241C150.966 30.1247 150.752 30.8182 150.574 31.5144C150.234 32.846 149.894 34.1781 149.471 35.4868C148.731 37.7791 147.808 40.0137 146.451 42.0135C145.796 42.9802 145.078 43.909 144.333 44.8085C143.611 45.6814 142.741 46.4015 141.928 47.1846C141.527 47.5697 141.121 47.8586 140.642 48.1402C140.415 48.2739 140.307 48.3487 140.054 48.3087C139.797 48.2676 139.505 48.1121 139.262 48.0213C138.118 47.5937 136.984 47.1344 135.83 46.7339C134.686 46.337 133.506 46.0434 132.363 45.6489C131.826 45.4633 131.365 45.1357 130.855 44.8921C130.341 44.6467 129.807 44.4483 129.283 44.2278C129.012 44.114 129 44.1821 129.032 43.9154C129.049 43.7733 129.14 43.6097 129.188 43.4732C129.28 43.2102 129.373 42.947 129.467 42.6849C129.552 42.4507 129.627 42.0176 129.79 41.8201C129.935 41.6447 130.13 41.664 130.337 41.6679C131.504 41.689 132.654 41.6288 133.815 41.5153C135 41.3998 136.191 41.3117 137.372 41.1631C137.881 41.0993 138.444 41.0687 138.895 40.7984C139.264 40.5765 139.541 40.2329 139.779 39.8801C141.09 37.9403 141.601 35.4105 142.049 33.147C142.51 30.8202 142.87 28.399 142.666 26.0243C145.278 26.792 147.884 27.605 150.458 28.4918ZM120.73 21.8832C121.376 22.3682 121.647 23.1361 121.89 23.871C122.192 24.787 122.462 25.7027 122.63 26.6546C122.982 28.6546 122.988 30.746 122.75 32.7602C122.524 34.6829 122.078 36.7706 121.18 38.5021C120.939 38.9652 120.573 39.2856 120.296 39.7099C120.11 39.995 120.042 40.469 120.036 40.8049C120.026 41.2864 120.491 41.258 120.863 41.2888C121.405 41.3337 121.947 41.3797 122.49 41.4221C124.534 41.5817 126.649 41.4353 128.651 41.8685C128.331 42.3407 128.098 42.7863 127.63 43.1339C127.192 43.4593 126.666 43.6981 126.336 44.1482C126.062 44.5234 125.86 45.1022 125.889 45.5733C125.919 46.0678 126.312 46.1902 126.712 46.3624C127.836 46.8462 128.926 47.3751 130.082 47.7846C130.331 47.8725 130.574 47.9749 130.838 48.0004C131.05 48.0207 131.208 48.0021 131.4 48.0993C131.654 48.2277 131.853 48.4268 132.127 48.5386C132.384 48.6438 132.654 48.714 132.923 48.7821C133.918 49.0345 134.85 49.4199 135.863 49.6133C136.158 49.6698 136.745 49.6654 136.965 49.9082C137.198 50.1649 136.873 50.4494 136.943 50.7315C137.036 51.1024 137.722 51.128 138.036 51.2017C138.484 51.3071 138.898 51.344 139.353 51.2568C140.273 51.0804 141.155 50.7454 141.943 50.2353C142.768 49.7018 143.459 48.9988 144.143 48.2994C144.855 47.5707 145.563 46.8621 146.179 46.0467C146.809 45.2134 147.441 44.3487 147.93 43.4244C148.42 42.5015 148.84 41.5415 149.318 40.6125C149.818 39.6434 150.16 38.6068 150.519 37.5801C150.89 36.5156 151.226 35.4609 151.476 34.3603C151.722 33.2794 151.911 32.2038 152.096 31.1125C152.144 30.8334 152.242 30.5591 152.278 30.2794C152.301 30.0915 152.258 29.8937 152.301 29.7086C152.387 29.3404 152.787 29.2051 152.89 28.8239C153.129 27.9382 152.289 27.3358 151.656 26.9211C150.832 26.3819 149.873 25.9206 148.908 25.7107C146.831 25.2592 144.747 24.6672 142.6 24.8428C142.104 22.8362 141.719 20.7044 140.437 19.0223C140.293 18.8323 140.12 18.681 140.059 18.4456C140.007 18.2438 140.013 18.0583 139.922 17.8635C139.698 17.3841 139.298 17.2153 138.799 17.1768C137.713 17.0928 136.667 17.0428 135.584 17.1451C135.103 17.1904 134.623 17.1371 134.141 17.178C133.678 17.2171 133.222 17.3027 132.764 17.3821C131.764 17.5564 130.752 17.6568 129.751 17.8348C127.741 18.1923 125.738 18.5978 123.796 19.2383C122.858 19.5478 121.801 19.8421 120.939 20.3315C120.559 20.5471 120.315 20.8882 120.242 21.318C120.165 21.7651 120.436 21.6618 120.73 21.8832Z" fill="#979797"/>
<path fill-rule="evenodd" clip-rule="evenodd" d="M31.7782 21.175C31.5706 20.028 31.2409 18.9096 31.0287 17.7644C30.8274 16.6765 30.7589 15.5327 30.6943 14.4283C30.6287 13.3051 30.7687 12.2561 30.9456 11.1513C31.0433 10.5418 31.1319 9.93082 31.2214 9.32005C31.2755 8.94565 31.2884 8.569 31.6594 8.37592C32.1404 8.1257 32.7827 8.05882 33.3039 7.90258C33.8305 7.7447 34.3535 7.57382 34.8711 7.38827C35.9963 6.9848 37.0969 6.51727 38.2156 6.09737C39.2872 5.69536 40.3588 5.34382 41.3869 4.83262C41.9161 4.56959 42.4354 4.28797 42.9547 4.00654C43.3441 3.79586 43.8521 3.38451 44.2964 3.37427C44.087 4.6878 44.2546 5.98774 44.5752 7.26631C44.7018 7.7701 44.696 7.99132 44.1646 8.09714C43.5015 8.22925 42.8287 8.33482 42.1598 8.42983C40.8971 8.6088 39.6225 8.70221 38.3525 8.80934C37.7504 8.86011 37.1602 8.86262 36.5624 8.88527C36.1381 8.90168 36.011 9.10479 35.9726 9.50627C35.9453 9.79664 35.9453 9.92417 35.7356 10.1388C35.5644 10.3141 35.3946 10.4823 35.246 10.6787C34.9815 11.0283 34.7771 11.4187 34.6222 11.8285C34.2782 12.7369 34.1645 13.7284 34.0743 14.6899C33.8485 17.1092 34.0721 19.6179 34.6106 21.9838C34.8847 23.1868 34.9936 24.4078 35.2934 25.6082C35.4252 26.1374 35.7373 26.7813 35.3969 27.2799C35.0641 27.768 34.581 28.182 34.1806 28.6152C33.4436 27.5181 33.0002 26.266 32.6554 24.9989C32.3112 23.7358 32.0113 22.463 31.7782 21.175ZM47.9417 10.1244C48.5047 10.1269 49.066 10.1126 49.6291 10.097C49.2918 12.4965 49.949 14.8816 50.4835 17.2058C50.7228 18.2452 51.0207 19.272 51.3905 20.2725C51.7694 21.2956 52.2675 22.2367 52.7488 23.2111C52.8539 23.4239 53.0614 23.7636 52.9671 24.0086C52.8626 24.28 52.3572 24.5438 52.1515 24.7101C51.3352 25.3692 50.5425 26.06 49.6961 26.6812C48.838 27.3111 47.9031 27.7987 47.0824 28.4844C46.279 29.1555 45.4542 29.7938 44.5894 30.3843C43.7398 30.9647 42.8315 31.4649 42.0371 32.1233C41.2836 32.7475 40.719 33.4824 40.1449 34.2659C39.3419 33.0051 38.8032 31.6497 38.346 30.2279C37.9083 28.867 37.4194 27.459 37.2004 26.0444C37.1001 25.399 36.9475 24.8143 36.7705 24.188C36.6119 23.6276 36.5977 23.0411 36.4961 22.4689C36.272 21.2079 35.9456 19.9753 35.7913 18.7012C35.4999 16.2915 35.4844 13.6641 36.2308 11.3381C36.2783 11.1897 36.3036 10.9639 36.3906 10.8408C36.5371 10.6338 36.4782 10.6809 36.7586 10.7435C37.0201 10.8015 37.2803 10.868 37.5452 10.9093C38.1017 10.9961 38.6613 10.952 39.2212 10.964C39.8415 10.9771 40.431 11.0916 41.0546 11.0279C41.6586 10.9662 42.2514 10.8229 42.8555 10.7626C43.1895 10.7292 43.5116 10.7584 43.8448 10.7565C44.116 10.755 44.3605 10.6727 44.6353 10.6309C45.1665 10.5505 45.7075 10.5636 46.2381 10.475C46.8347 10.3754 47.3229 10.1219 47.9417 10.1244ZM31.4665 25.1623C32.0174 26.5401 32.7629 27.8358 33.6645 29.0143C33.9542 29.3934 34.3112 29.9367 34.8522 29.9209C35.3512 29.9064 35.8311 29.4115 36.2428 29.1741C37.1308 31.1504 37.8443 33.2584 39.2674 34.9334C39.4471 35.1449 39.7185 35.5555 39.9995 35.6514C40.2865 35.7493 40.5427 35.5135 40.7624 35.3569C41.6858 34.7006 42.6795 34.1754 43.6697 33.6294C44.1526 33.3631 44.6493 33.1089 45.1083 32.8016C45.4893 32.5463 45.8398 32.2677 46.2582 32.0735C47.1327 31.6676 47.907 31.1444 48.7035 30.6053C50.3751 29.4734 52.0726 28.4005 53.5169 26.9794C54.2062 26.3013 54.9375 25.6223 55.5393 24.8636C56.0329 24.2414 56.5393 23.3698 56.0193 22.6102C55.8621 22.3805 55.5031 22.0261 55.1959 22.0238C54.9075 22.0212 54.7293 22.3282 54.4976 22.4489C54.1472 22.6313 54.1523 22.3089 54.0409 22.0246C53.9533 21.8004 53.8643 21.5768 53.7758 21.3528C53.5903 20.8828 53.4055 20.4121 53.2347 19.9364C52.528 17.9654 52.0853 15.9268 51.5552 13.9061C51.29 12.8945 51.2923 11.9462 51.2738 10.9096C51.2636 10.3598 51.2448 9.8099 51.2189 9.26071C51.2042 8.95547 51.1923 8.61929 51.0319 8.34842C50.6726 7.74115 49.6903 7.80402 49.0879 7.76179C48.5701 7.72537 48.0504 7.712 47.5321 7.74227C47.248 7.75905 46.5377 7.98961 46.3039 7.80846C46.0723 7.62927 46.0733 6.85079 46.021 6.57917C45.9248 6.07881 45.8303 5.57846 45.7673 5.0725C45.6655 4.25639 45.463 3.52785 44.6829 3.11551C44.9935 2.70012 45.0988 1.96349 44.4527 1.82447C43.7095 1.66429 42.8185 1.84572 42.1706 2.20101C41.462 2.58958 40.6303 2.80952 39.8752 3.09575C39.0719 3.39998 38.2759 3.72272 37.4784 4.04242C36.1066 4.59271 34.6717 5.00984 33.3456 5.6641C32.6813 5.99155 32.0075 6.28469 31.3294 6.5813C30.627 6.88823 30.2109 7.10193 29.934 7.83478C29.4093 9.22464 28.956 10.6268 28.8469 12.1177C28.7441 13.53 28.894 14.9465 29.1267 16.339C29.3778 17.8399 29.7302 19.3098 30.1313 20.7768C30.5345 22.252 30.8971 23.7388 31.4665 25.1623Z" fill="#979797"/>
<path fill-rule="evenodd" clip-rule="evenodd" d="M16.8076 90.9006C16.8544 90.7361 17.1003 90.6345 17.2203 90.5456C17.41 90.4054 17.5829 90.2469 17.7504 90.0815C18.589 89.2536 19.4001 88.4197 20.1331 87.4949C20.3129 87.2682 20.7012 86.5067 21.0506 86.5197C21.222 86.5264 21.3773 86.7672 21.4796 86.8777C21.6593 87.0726 21.8424 87.2625 22.0353 87.4442C22.7967 88.1617 23.6674 88.7564 24.5932 89.2423C26.3334 90.1555 28.1511 90.564 30.105 90.1591C29.3023 92.1768 28.5742 94.2554 27.5674 96.1836C27.0595 97.1568 26.4627 98.0725 25.9202 99.0252C25.8274 99.1877 25.7796 99.2832 25.6325 99.4012C25.4899 99.5152 25.3425 99.5787 25.2439 99.7461C25.0724 100.037 25.1457 100.385 25.2776 100.676C23.9748 101.071 22.3961 100.854 21.0758 100.683C20.3007 100.582 19.5267 100.447 18.7711 100.246C18.2575 100.11 17.6832 99.9579 17.249 99.6368C18.2879 98.6793 19.3484 97.7499 20.3136 96.7165C20.9729 96.0111 22.2158 95.0637 21.802 93.9411C21.7375 93.7667 21.6096 93.5652 21.4237 93.5029C21.1489 93.4112 21.1426 93.6059 20.9412 93.708C20.6139 93.8736 20.0847 93.5225 19.7686 93.3946C18.9137 93.0482 18.0609 92.6419 17.4273 91.9526C17.2377 91.7462 16.7167 91.2212 16.8076 90.9006ZM12.124 103.022C12.153 102.333 11.1104 102.081 10.6266 101.88C9.90093 101.577 9.34662 101.177 8.77114 100.64C6.52651 98.5448 5.16447 95.6338 4.52744 92.6641C4.35048 91.8399 4.23045 91.0025 4.03612 90.1823C3.93534 89.7566 3.80481 89.3695 3.78828 88.9274C3.77274 88.5094 3.77532 88.0913 3.76948 87.6731C3.75837 86.8388 3.64781 86.0101 3.67665 85.1752C3.70376 84.4016 3.81543 83.6332 3.98418 82.8781C4.0965 82.3743 4.14641 81.6959 4.76546 81.625C5.53898 81.5369 6.36832 81.7303 7.14687 81.7408C8.00891 81.7525 8.87053 81.7252 9.73234 81.7039C10.5658 81.6832 11.4019 81.7446 12.2341 81.6972C12.6693 81.6725 13.0867 81.5998 13.5058 81.4824C13.6885 81.4314 14.0137 81.3275 14.0972 81.5739C14.1889 81.8435 13.8452 82.2521 13.7159 82.4656C13.5335 82.7672 13.4125 83.0378 13.3612 83.3884C13.2392 84.2231 13.1554 85.0825 13.2493 85.9239C13.3406 86.7423 13.5769 87.5661 13.7761 88.3641C14.1778 89.9733 14.807 91.4507 15.7757 92.8032C16.6528 94.027 17.715 94.7514 19.0711 95.3674C18.0544 96.2548 17.0378 97.1428 16.0207 98.0293C15.1043 98.8278 14.1576 99.5578 13.4594 100.566C13.172 100.982 12.8297 101.464 12.6735 101.948C12.4785 102.553 13.0359 102.785 13.4749 102.448C13.9582 102.078 14.4234 101.678 14.8885 101.285C15.1912 101.03 15.6529 100.438 16.0591 100.343C16.4043 100.263 16.6491 100.667 16.865 100.87C17.2109 101.195 17.6058 101.461 18.0231 101.686C18.9001 102.158 19.8707 102.49 20.8487 102.676C21.9278 102.882 23.0456 102.922 24.1396 102.827C24.7366 102.775 25.3307 102.675 25.9043 102.502C26.3347 102.372 26.9501 102.21 27.287 101.895C27.5769 101.624 27.3023 101.298 27.5869 101.019C27.8864 100.726 28.2198 100.479 28.5009 100.164C29.1651 99.4209 29.4624 98.6087 29.719 97.6631C30.3082 95.4917 31.174 93.4217 31.4521 91.1745C31.517 90.6482 31.4785 90.0576 31.6797 89.5605C31.8137 89.23 32.2313 88.9449 32.1866 88.5689C32.1425 88.2014 31.7947 87.4541 31.3994 87.3822C30.9421 87.2993 30.3491 87.4513 29.8797 87.4639C27.8402 87.5174 25.8682 87.3029 24.0037 86.4313C23.5372 86.2135 23.0866 85.9633 22.6513 85.6894C22.3284 85.4863 21.9898 85.2722 21.9378 84.8615C21.8913 84.4966 22.0397 83.9074 21.4362 83.9594C21.0314 83.9942 20.552 84.3376 20.2882 84.6195C19.498 85.4644 18.8065 86.4131 18.0754 87.3091C17.4085 88.1262 16.7141 88.9198 16.029 89.7215C15.7647 88.311 15.3273 86.8217 15.3035 85.3835C15.2921 84.681 15.4106 83.9848 15.6217 83.316C15.8389 82.6295 15.9736 81.9349 16.1375 81.2353C16.3455 81.293 16.7021 81.4502 16.7943 81.1278C16.8517 80.9275 16.6604 80.4899 16.5694 80.3004C15.8956 78.8973 13.6116 79.336 12.388 79.3862C10.6281 79.4587 8.8506 79.4546 7.09797 79.6376C6.28854 79.7219 5.5106 79.9 4.71479 80.057C4.30655 80.1375 3.81486 80.1706 3.67791 80.6407C3.64123 80.7669 3.67245 80.9248 3.62406 81.0303C3.57973 81.1272 3.41005 81.2546 3.33944 81.3501C3.1346 81.6265 2.97478 81.9307 2.84875 82.2501C2.5906 82.9039 2.48034 83.6073 2.37702 84.2989C2.12771 85.9665 2.17967 87.6542 2.40167 89.3213C2.62921 91.0301 2.93362 92.7788 3.47841 94.4176C4.48125 97.4343 6.1311 100.338 8.70528 102.286C9.29549 102.732 9.89878 103.066 10.625 103.234C10.9765 103.316 12.0979 103.636 12.124 103.022Z" fill="#979797"/>
<path fill-rule="evenodd" clip-rule="evenodd" d="M43.5853 133.377C43.1876 134.304 42.7887 135.223 42.467 136.18C42.1437 137.144 41.8493 138.117 41.5393 139.085C41.2405 140.019 40.876 140.945 40.6918 141.911C40.5855 142.468 40.733 143.126 40.0794 143.272C39.2157 143.465 38.3413 143.433 37.4826 143.23C35.7619 142.822 34.2096 142.024 32.8925 140.842C31.5259 139.615 30.3273 138.136 29.336 136.594C28.7877 135.741 28.2951 134.853 27.8248 133.955C27.5861 133.5 27.3421 133.056 27.2104 132.556C27.1522 132.336 27.1084 132.113 27.0624 131.89C27.0187 131.68 27.0397 131.286 26.7969 131.335C26.7121 130.719 26.6243 130.103 26.5417 129.487C26.4819 129.042 26.3519 128.559 26.6556 128.174C26.9459 127.806 27.5113 127.649 27.9124 127.441C28.3975 127.189 28.8732 126.919 29.3384 126.632C30.2927 126.043 31.1753 125.362 32.0681 124.685C32.5136 124.348 32.9587 124.006 33.3607 123.616C33.6927 123.293 33.8884 122.899 34.2842 123.334C36.9796 126.293 39.2986 129.792 42.9395 131.683C43.2341 131.836 43.6915 131.992 43.8186 132.336C43.9421 132.67 43.7116 133.082 43.5853 133.377ZM45.3206 130.334C44.8308 130.158 44.3031 130.245 43.8132 130.092C43.2515 129.917 42.7542 129.321 42.3061 128.954C41.2365 128.08 40.1636 127.199 39.1568 126.251C38.2425 125.391 37.3799 124.478 36.4871 123.596C36.0298 123.144 35.5657 122.709 35.0616 122.31C34.8471 122.14 34.2478 121.498 33.9146 121.615C33.7426 121.675 33.7943 121.844 33.6828 121.932C33.6252 121.977 33.5654 121.96 33.5043 121.985C33.2843 122.075 33.0066 122.025 32.7777 122.109C32.2122 122.317 31.6477 122.725 31.1332 123.039C30.0595 123.695 29.0771 124.481 28.0371 125.187C27.0061 125.887 25.8075 126.487 24.9329 127.385C24.5876 127.74 24.228 128.257 24.7575 128.637C24.9583 128.781 25.1664 128.721 25.3626 128.822C25.5281 128.907 25.4857 128.989 25.5071 129.198C25.5193 129.317 25.531 129.436 25.5433 129.555C25.6719 130.807 25.8349 132.053 26.3202 133.224C26.8107 134.408 27.3878 135.564 28.0429 136.664C30.1116 140.139 33.2208 144.093 37.4746 144.761C38.4688 144.916 39.3808 144.777 40.3683 144.706C40.6788 144.684 40.9648 144.753 41.2635 144.82C41.4064 144.852 41.5896 144.916 41.7362 144.858C42.0707 144.725 42.2145 144.114 42.3095 143.818C42.6684 142.699 43.1248 141.618 43.5112 140.51C43.711 139.935 43.8904 139.354 44.0217 138.76C44.098 138.417 44.0781 137.886 44.5082 137.785C44.6634 137.909 44.8189 138.033 44.9741 138.156C45.0365 138.206 45.1239 138.256 45.1757 138.316C45.3059 138.468 45.2657 138.341 45.2841 138.555C45.3073 138.83 45.1419 139.19 45.0424 139.437C44.4613 140.886 43.8331 142.317 43.1997 143.743C42.5776 145.146 41.9334 146.545 41.1148 147.845C40.949 148.108 40.7744 148.422 40.4571 148.519C40.1642 148.61 39.799 148.539 39.4914 148.565C38.823 148.62 38.1598 148.766 37.486 148.736C37.1357 148.72 36.8157 148.603 36.474 148.668C36.1866 148.723 35.982 148.726 35.6953 148.641C35.0469 148.449 34.3758 148.426 33.726 148.255C32.386 147.901 30.9235 147.238 29.7975 146.429C29.214 146.009 28.6941 145.508 28.1171 145.08C27.5563 144.664 27.0019 144.249 26.4837 143.779C25.4618 142.852 24.5646 141.792 23.7939 140.647C23.3935 140.053 23.1675 139.655 23.6128 139.027C24.0327 138.435 24.4132 137.832 24.7194 137.172C24.8682 136.85 25.609 135.62 24.8223 135.653C24.396 135.671 23.9299 136.52 23.6912 136.845C23.3026 137.376 22.9205 137.892 22.4247 138.329C21.8632 138.824 21.9594 139.24 22.1455 139.914C22.5293 141.303 23.4035 142.526 24.2743 143.658C25.1695 144.822 26.1911 145.882 27.3252 146.813C29.4949 148.595 31.8621 150.36 34.663 150.941C36.0479 151.229 37.456 151.204 38.8503 151.002C39.6736 150.882 40.4882 150.703 41.2872 150.473C41.6245 150.375 42.0802 150.306 42.3788 150.117C42.621 149.964 42.613 149.757 42.6458 149.493C42.7241 148.866 43.2356 148.403 43.517 147.844C43.8176 147.246 44.1465 146.672 44.4622 146.082C45.1463 144.806 45.4609 143.433 45.9232 142.073C46.1788 141.32 46.4728 140.573 46.6658 139.8C46.8216 139.175 47.0052 138.358 46.948 137.714C46.902 137.2 46.3187 136.587 45.7666 136.703C45.4786 136.763 45.3093 137.046 45.0369 137.148C44.9551 137.179 44.6532 137.196 44.5636 137.263C44.7307 136.032 45.1358 134.807 45.3675 133.59C45.4983 132.904 45.6118 132.214 45.7036 131.521C45.7733 130.994 45.9023 130.543 45.3206 130.334Z" fill="#979797"/>
<path fill-rule="evenodd" clip-rule="evenodd" d="M29.6343 40.3708C31.0769 42.213 32.956 43.4909 34.8737 44.791C35.8885 45.4791 36.8981 46.0809 38.0333 46.5512C39.0901 46.9888 40.1534 47.4077 41.2156 47.8312C40.622 49.2132 39.8924 50.5258 39.1741 51.8478C38.5104 53.0689 37.8555 54.311 37.5658 55.6807C37.3515 55.1173 36.8815 54.8573 36.3124 54.7534C35.6022 54.624 34.9362 54.4553 34.2726 54.1641C32.8643 53.5463 31.4908 52.7304 30.2084 51.8864C27.6001 50.1697 25.5738 47.6827 23.4789 45.4093C25.5306 43.73 27.5827 42.0505 29.6343 40.3708ZM23.5318 47.5642C24.124 48.4347 24.8604 49.2293 25.5514 50.0227C26.2322 50.8046 26.928 51.5768 27.6734 52.2986C29.0898 53.6707 30.6973 54.8742 32.5399 55.6146C33.4418 55.9771 34.3977 56.3234 35.3498 56.5304C35.7998 56.6278 36.2758 56.6672 36.7212 56.5233C36.994 56.4351 37.3131 56.0897 37.585 56.2523C37.8635 56.4188 37.9077 56.8863 38.3128 56.5483C38.645 56.2704 38.8789 55.8029 39.0798 55.4319C39.5911 54.4875 40.1045 53.5382 40.5809 52.576C41.0426 51.6434 41.3587 50.6357 41.6978 49.6542C41.8848 49.1124 42.0682 48.5692 42.2524 48.0262C42.384 47.6377 42.6082 47.2247 42.4822 46.8092C42.237 45.9982 41.0873 45.7053 40.3974 45.399C39.5519 45.0233 38.7523 44.6195 37.9819 44.1071C37.1621 43.5617 36.2082 43.175 35.3479 42.6866C34.4137 42.1569 33.5352 41.5448 32.6602 40.9252C31.9655 40.4331 31.2715 39.9242 30.6422 39.3515C30.1504 38.9035 29.6465 38.5931 28.9711 38.8763C28.4555 39.1469 27.9287 39.381 27.4524 39.721C26.9736 40.0627 26.5286 40.4526 26.0739 40.8258C25.2498 41.5018 24.5306 42.2726 23.7458 42.9898C23.568 43.1523 23.3929 43.318 23.2423 43.5065C23.1591 43.6103 23.0933 43.786 22.9978 43.8697C22.9271 43.9316 22.8687 43.937 22.7825 43.9876C22.4408 44.1874 22.3556 44.4295 22.2557 44.8014C22.0955 45.3993 22.1769 45.6769 22.5874 46.1392C22.9626 46.5618 23.2143 47.098 23.5318 47.5642Z" fill="#979797"/>
<path fill-rule="evenodd" clip-rule="evenodd" d="M66.3666 65.8422C66.6689 66.1761 67.0192 65.9215 67.19 65.6142C67.7088 64.6807 68.173 63.6886 68.6144 62.7153C69.0622 61.7276 69.4576 60.7378 69.9969 59.7939C70.5397 58.8444 71.1027 57.9035 71.6752 56.9714C73.8139 53.4881 76.0358 50.0628 78.4995 46.8041C79.1017 46.0077 79.7274 45.2229 80.2955 44.4011C80.5456 44.0395 80.8556 43.6323 80.756 43.1637C80.6852 42.8296 80.3912 42.455 80.067 42.3364C79.3622 42.0789 78.6705 43.1414 78.2582 43.566C77.9427 43.8908 77.5787 44.0968 77.2368 44.3787C76.9377 44.6253 76.6562 44.9707 76.4172 45.2767C75.8796 45.965 75.2769 46.5761 74.7276 47.2509C74.17 47.936 73.7042 48.6909 73.1608 49.3872C72.5797 50.1317 71.9325 50.7988 71.4429 51.6155C70.9603 52.4214 70.5837 53.2736 70.0713 54.0655C68.9801 55.7508 68.169 57.5791 67.3059 59.3897C66.89 60.2614 66.6236 61.182 66.4063 62.1225C66.2978 62.5908 66.1915 63.0609 66.0942 63.5316C66.0017 63.9781 66.0646 64.4057 66.0663 64.856C66.1669 64.8577 66.2458 65.7092 66.3666 65.8422Z" fill="#979797"/>
<path fill-rule="evenodd" clip-rule="evenodd" d="M126.736 146.105C127.406 145.656 127.983 144.894 128.545 144.313C129.146 143.691 129.703 143.116 130.107 142.346C130.301 141.975 130.466 141.586 130.671 141.221C130.865 140.877 131.082 140.586 131.16 140.19C131.243 139.776 131.412 138.506 130.76 138.46C130.381 138.433 130.341 138.835 130.257 139.113C130.16 139.431 130.03 139.738 129.846 140.016C129.412 140.673 128.697 141.155 128.163 141.734C127.645 142.296 127.086 142.781 126.439 143.189C125.817 143.581 125.148 143.93 124.47 144.215C123.874 144.464 123.207 144.59 122.701 145.018C122.399 145.274 122.336 145.359 121.926 145.334C121.594 145.313 121.27 145.341 120.954 145.449C120.596 145.572 120.312 145.762 119.925 145.798C119.589 145.829 119.249 145.807 118.911 145.83C118.132 145.883 117.389 146.141 116.598 146.175C116.189 146.193 115.779 146.191 115.37 146.193C115.042 146.194 114.668 146.152 114.36 146.282C113.841 146.501 113.35 147.304 113.582 147.866C113.832 148.471 114.846 148.436 115.376 148.524C115.373 148.56 115.37 148.595 115.367 148.63C116.28 148.71 117.21 148.872 118.128 148.848C118.613 148.835 119.071 148.747 119.543 148.64C119.942 148.55 120.313 148.585 120.716 148.571C121.076 148.558 121.387 148.469 121.675 148.247C122.044 147.961 122.123 148.101 122.553 148.132C123.245 148.18 124.021 147.607 124.599 147.293C125.303 146.91 126.071 146.552 126.736 146.105Z" fill="#979797"/>
<path fill-rule="evenodd" clip-rule="evenodd" d="M82.1747 25.3619C82.2857 25.0877 82.7875 24.767 83.0078 24.5617C83.3085 24.2815 83.6033 23.9975 83.8888 23.7017C84.4059 23.1648 84.8724 23.3718 85.4744 23.6878C86.5868 24.2709 87.1626 25.2202 87.3076 26.4402C87.3737 26.7923 87.5753 27.365 87.3562 27.7044C87.147 28.0296 86.6031 28.0996 86.2727 28.2308C85.8403 28.403 85.265 29.0933 84.7703 29.0112C84.3364 28.939 84.3491 28.1858 84.2587 27.8709C84.0889 27.283 83.7847 26.7392 83.3291 26.3218C83.0948 26.1073 82.8297 25.9368 82.5461 25.7928C82.3294 25.6823 82.0644 25.6342 82.1747 25.3619ZM80.7151 27.498C81.1111 27.4954 81.5393 27.6018 81.9246 27.6826C82.1802 27.7361 82.5085 27.7704 82.7319 27.9069C83.1027 28.1337 83.0543 28.6057 83.1958 28.9645C83.2786 29.1744 83.4242 29.3416 83.3846 29.5823C83.3386 29.8633 83.07 29.9587 82.9684 30.1984C82.82 30.5496 83.165 30.9456 83.3908 31.1814C83.7824 31.5908 84.1593 31.2775 84.621 31.1221C85.1772 30.9347 85.7601 30.8056 86.2764 30.518C86.6971 30.2839 87.0049 29.8617 87.4322 30.2719C87.5916 30.4252 87.6459 30.5759 87.8851 30.4644C88.084 30.3717 88.2449 30.05 88.3622 29.879C89.0919 28.8131 89.0814 27.539 88.8758 26.3173C88.6739 24.9558 87.9521 23.7728 87.048 22.7548C86.858 22.5407 86.6607 22.2898 86.4081 22.1426C86.1621 21.9993 85.8716 21.9778 85.6405 21.8002C85.2956 21.5355 85.2463 20.8821 84.7623 20.8254C84.2526 20.7652 83.6638 21.4766 83.3435 21.7935C82.8921 22.2396 82.4546 22.6986 82.0276 23.1666C81.1117 24.1691 80.0659 25.1597 79.2732 26.26C79.0044 26.6334 78.972 27.213 79.3664 27.5293C79.7613 27.8458 80.2761 27.5006 80.7151 27.498Z" fill="#979797"/>
<path fill-rule="evenodd" clip-rule="evenodd" d="M38.0691 158.844C37.535 159.187 37.1397 159.447 36.4886 159.553C36.0322 159.627 35.568 159.651 35.1096 159.711C33.928 159.867 32.7546 159.836 31.5812 159.639C30.5146 159.46 29.4857 159.178 28.5179 158.696C28.0074 158.442 27.5274 158.142 27.0516 157.831C26.7105 157.608 26.4087 157.451 25.9843 157.507C26.2454 158.07 26.4919 158.503 26.9145 158.967C27.2536 159.338 27.6211 159.685 28.0144 159.999C28.8183 160.641 29.7303 161.144 30.703 161.49C31.6587 161.83 32.6942 162.061 33.7144 162.052C34.2838 162.048 34.8517 161.986 35.4196 161.948C35.9559 161.912 36.4783 161.881 36.9811 161.673C37.4515 161.479 37.9614 161.328 38.4005 161.066C38.7474 160.859 39.0425 160.527 39.3058 160.226C39.8187 159.638 38.7676 158.395 38.0691 158.844Z" fill="#979797"/>
<path fill-rule="evenodd" clip-rule="evenodd" d="M22.3612 20.8623C22.7529 21.1753 23.3765 21.0147 23.1862 20.4558C23.0123 19.943 22.7155 19.4706 22.4181 19.0224C22.1148 18.5649 22.0076 18.0096 21.8605 17.4876C21.5097 16.2408 21.2333 15.0164 21.1466 13.7216C21.0622 12.4756 20.8942 11.2361 20.8505 9.98702C20.8072 8.76124 20.9913 7.54375 20.9806 6.31993C20.9777 5.94183 20.8686 5.23097 20.3284 5.28564C19.8792 5.33118 19.7829 6.00268 19.6903 6.33225C19.3824 7.42837 19.0123 8.46424 18.9592 9.60985C18.9109 10.6421 18.9518 11.7168 19.1072 12.7382C19.2703 13.8086 19.5617 14.857 19.7711 15.9186C20.1926 17.1055 20.4885 18.4639 21.1828 19.5258C21.4957 20.0038 21.9114 20.5029 22.3612 20.8623Z" fill="#979797"/>
<path fill-rule="evenodd" clip-rule="evenodd" d="M157.075 38.5453C156.786 38.9019 156.577 39.311 156.755 39.7782C157.079 40.6261 158.384 39.2956 158.641 38.8927C159.199 38.0196 159.829 37.16 160.274 36.2196C160.728 35.2606 160.971 34.1572 161.295 33.1452C161.567 31.9108 161.76 30.6569 161.818 29.3952C161.869 28.2765 161.914 27.1209 161.271 26.1678C161.003 25.7713 160.695 25.9212 160.523 26.3239C160.334 26.766 160.318 27.262 160.409 27.7247C160.621 28.8094 160.299 29.91 160.099 30.9944C159.701 33.1508 159.21 35.2726 158.059 37.1644C157.764 37.6494 157.431 38.1055 157.075 38.5453Z" fill="#979797"/>
<path fill-rule="evenodd" clip-rule="evenodd" d="M11.6816 53.9359C11.9291 54.3828 12.1916 54.822 12.4889 55.2382C13.0636 56.0418 13.7291 56.7843 14.4797 57.4273C15.718 58.4888 17.227 59.4101 18.7538 59.9851C19.2572 60.1748 20.5081 60.7456 20.9869 60.3209C21.6417 59.7399 20.3754 59.0249 19.9938 58.8185C19.2065 58.392 18.4215 57.9602 17.6289 57.5429C16.8341 57.1245 16.1603 56.4982 15.4708 55.9283C14.7761 55.3542 14.0907 54.7684 13.4356 54.1491C13.0965 53.8288 12.7835 53.4819 12.446 53.1609C12.154 52.8831 11.7903 52.7354 11.4529 52.525C11.2602 52.6874 11.2811 52.6623 11.2766 52.8767C11.2746 52.9689 11.3278 53.1412 11.35 53.2195C11.422 53.4775 11.5525 53.7029 11.6816 53.9359Z" fill="#979797"/>
<path fill-rule="evenodd" clip-rule="evenodd" d="M68.2465 49.4126C69.2656 48.089 70.4339 46.915 71.3717 45.5316C71.6078 45.1835 71.8005 44.97 71.4766 44.6111C71.2603 44.3716 71.0436 44.2695 70.7942 44.5054C70.1984 45.0697 69.6528 45.7291 69.0887 46.3288C67.932 47.5585 66.7226 48.7779 65.7244 50.1419C65.2725 50.7596 64.8705 51.4154 64.5594 52.1146C64.2327 52.8483 64.0167 53.5717 64.646 54.2141C65.8534 52.6199 67.0271 50.9966 68.2465 49.4126Z" fill="#979797"/>
<path fill-rule="evenodd" clip-rule="evenodd" d="M131.725 149.229C131.528 149.114 131.105 149.245 130.917 149.303C130.165 149.533 129.4 149.725 128.644 149.942C127.948 150.142 127.256 150.356 126.565 150.573C125.989 150.753 125.557 151.056 125.548 151.714C125.544 152.014 125.576 152.376 125.945 152.312C126.215 152.265 126.453 152.212 126.739 152.196C127.461 152.157 128.188 152.122 128.896 151.967C130.125 151.7 131.379 151.096 131.891 149.877C131.865 149.676 131.936 149.352 131.725 149.229Z" fill="#979797"/>
<path fill-rule="evenodd" clip-rule="evenodd" d="M59.0291 106.641C58.8808 106.601 58.7807 106.648 58.7225 106.491C58.6739 106.361 58.8604 106.182 58.8717 106.06C58.9125 105.623 58.5548 106.14 58.4202 106.3C58.6373 106.644 58.8541 106.988 59.0722 107.331C59.2302 107.233 59.3882 107.134 59.5457 107.035C59.3432 106.844 59.2987 106.715 59.0291 106.641Z" fill="#979797"/>
<path fill-rule="evenodd" clip-rule="evenodd" d="M97.6031 90.69C97.5371 90.9079 97.471 91.1258 97.4051 91.3437C97.7326 91.3267 98.0603 91.3097 98.3882 91.2926C98.356 91.0361 97.8009 90.8111 97.6031 90.69Z" fill="#979797"/>
</svg>
