<svg width="28" height="22" viewBox="0 0 28 22" fill="none" xmlns="http://www.w3.org/2000/svg">
<path d="M23.8245 11.5307C23.4022 11.5307 23.0598 11.1883 23.0598 10.7659C23.0598 10.3436 23.4022 10.0012 23.8245 10.0012H27.2353C27.6576 10.0012 28 10.3436 28 10.7659C28 11.1883 27.6576 11.5307 27.2353 11.5307H23.8245ZM25.185 20.8213C24.9261 21.1508 24.4514 21.2132 24.1162 20.9617L21.3963 18.9215C21.0503 18.662 20.9857 18.1687 21.253 17.8288C21.5118 17.4998 21.9859 17.4376 22.3208 17.6887L25.0412 19.7282C25.3873 19.9877 25.4522 20.4811 25.185 20.8213ZM22.203 3.72541C21.8681 3.97648 21.394 3.91427 21.1353 3.58529C20.8679 3.2454 20.9326 2.75206 21.2785 2.49257L23.9985 0.452359C24.3337 0.20091 24.8084 0.263287 25.0672 0.592807C25.3345 0.932968 25.2696 1.42639 24.9235 1.68587L22.203 3.72541ZM4.05922 19.8846V14.0604H2.47163C1.78744 14.0604 1.20421 13.8198 0.721913 13.3385C0.23962 12.8572 -0.00101642 12.2745 3.22673e-06 11.5903V9.94308C3.22673e-06 9.2589 0.24064 8.67566 0.721913 8.19337C1.20319 7.71108 1.78591 7.47044 2.4701 7.47146H8.17655L14.2363 3.88332V17.6486L8.17655 14.0604H5.58869V19.8846H4.05922ZM12.7068 14.9246V6.60731L8.60633 9.00093H2.4701C2.23558 9.00093 2.01992 9.09932 1.82313 9.29612C1.62634 9.49291 1.52845 9.70856 1.52947 9.94308V11.5903C1.52947 11.8248 1.62736 12.0405 1.82313 12.2373C2.0189 12.4341 2.23456 12.532 2.4701 12.5309H8.60633L12.7068 14.9246ZM16.9419 15.1846V6.34883C17.4538 6.82296 17.8662 7.44597 18.1793 8.21784C18.4923 8.98971 18.6483 9.83908 18.6473 10.7659C18.6463 11.6928 18.4903 12.5422 18.1793 13.314C17.8683 14.0859 17.4558 14.7104 16.9419 15.1846Z" fill="#868686"/>
</svg>
